<svg width="32" height="32" viewBox="0 0 32 32" fill="none" xmlns="http://www.w3.org/2000/svg">
<g id="A">
<g id="Vector" filter="url(#filter0_d_614_16078)">
<path d="M16.5001 13.1984L15.9175 12.6088C14.5501 11.2248 12.0426 11.7024 11.1374 13.4424C10.7125 14.2608 10.6166 15.4424 11.3926 16.9504C12.1401 18.4024 13.6953 20.1416 16.5001 22.036C19.3049 20.1416 20.8593 18.4024 21.6076 16.9504C22.3836 15.4416 22.2885 14.2608 21.8628 13.4424C20.9576 11.7024 18.4502 11.224 17.0827 12.608L16.5001 13.1984ZM16.5001 23C4.04167 14.8944 12.6642 8.56805 16.3571 11.9144C16.4059 11.9584 16.4538 12.004 16.5001 12.0512C16.546 12.0041 16.5937 11.9587 16.6431 11.9152C20.3352 8.56645 28.9586 14.8936 16.5001 23Z" fill="#00575C"/>
<path d="M16.5001 13.1984L15.9175 12.6088C14.5501 11.2248 12.0426 11.7024 11.1374 13.4424C10.7125 14.2608 10.6166 15.4424 11.3926 16.9504C12.1401 18.4024 13.6953 20.1416 16.5001 22.036C19.3049 20.1416 20.8593 18.4024 21.6076 16.9504C22.3836 15.4416 22.2885 14.2608 21.8628 13.4424C20.9576 11.7024 18.4502 11.224 17.0827 12.608L16.5001 13.1984ZM16.5001 23C4.04167 14.8944 12.6642 8.56805 16.3571 11.9144C16.4059 11.9584 16.4538 12.004 16.5001 12.0512C16.546 12.0041 16.5937 11.9587 16.6431 11.9152C20.3352 8.56645 28.9586 14.8936 16.5001 23Z" stroke="#00575C" stroke-width="0.25"/>
</g>
</g>
<defs>
<filter id="filter0_d_614_16078" x="5.875" y="10.8746" width="21.25" height="20.2745" filterUnits="userSpaceOnUse" color-interpolation-filters="sRGB">
<feFlood flood-opacity="0" result="BackgroundImageFix"/>
<feColorMatrix in="SourceAlpha" type="matrix" values="0 0 0 0 0 0 0 0 0 0 0 0 0 0 0 0 0 0 127 0" result="hardAlpha"/>
<feOffset dy="4"/>
<feGaussianBlur stdDeviation="2"/>
<feComposite in2="hardAlpha" operator="out"/>
<feColorMatrix type="matrix" values="0 0 0 0 0 0 0 0 0 0 0 0 0 0 0 0 0 0 0.25 0"/>
<feBlend mode="normal" in2="BackgroundImageFix" result="effect1_dropShadow_614_16078"/>
<feBlend mode="normal" in="SourceGraphic" in2="effect1_dropShadow_614_16078" result="shape"/>
</filter>
</defs>
</svg>
