<svg width="16" height="16" viewBox="0 0 16 16" fill="none" xmlns="http://www.w3.org/2000/svg">
<g id="clarity:half-star-solid" clip-path="url(#clip0_749_16035)">
<path id="Vector" d="M15.1109 7.45779C15.2761 7.33473 15.3986 7.16307 15.4613 6.96686C15.524 6.77065 15.5237 6.55974 15.4605 6.36371C15.3973 6.16767 15.2743 5.99633 15.1087 5.87372C14.9432 5.75111 14.7435 5.68337 14.5375 5.68001L10.5375 5.5289C10.5179 5.52754 10.499 5.52053 10.4833 5.5087C10.4675 5.49687 10.4555 5.48073 10.4487 5.46223L9.06643 1.7289C8.99699 1.53896 8.87085 1.37495 8.7051 1.25908C8.53935 1.1432 8.342 1.08105 8.13977 1.08105C7.93753 1.08105 7.74018 1.1432 7.57443 1.25908C7.40868 1.37495 7.28255 1.53896 7.2131 1.7289L5.83532 5.47557C5.82851 5.49407 5.8165 5.5102 5.80073 5.52203C5.78496 5.53386 5.7661 5.54088 5.74643 5.54223L1.74643 5.69335C1.54048 5.69671 1.34074 5.76444 1.17523 5.88705C1.00972 6.00966 0.886727 6.181 0.823504 6.37704C0.760282 6.57308 0.759998 6.78399 0.822693 6.98019C0.885388 7.1764 1.00792 7.34807 1.1731 7.47112L4.31088 9.93779C4.32658 9.95015 4.33832 9.96684 4.34464 9.9858C4.35096 10.0048 4.35158 10.0251 4.34643 10.0445L3.26643 13.8711C3.21047 14.066 3.21589 14.2734 3.28196 14.465C3.34803 14.6567 3.47155 14.8234 3.6357 14.9424C3.79985 15.0613 3.99667 15.1269 4.19939 15.13C4.40211 15.1332 4.60087 15.0738 4.76866 14.96L8.08421 12.7378C8.10054 12.7265 8.11992 12.7205 8.13977 12.7205C8.15961 12.7205 8.17899 12.7265 8.19532 12.7378L11.5109 14.96C11.6764 15.0777 11.8744 15.141 12.0775 15.141C12.2806 15.141 12.4787 15.0777 12.6442 14.96C12.8084 14.8421 12.932 14.6763 12.9981 14.4853C13.0642 14.2943 13.0694 14.0875 13.0131 13.8933L11.9242 10.0533C11.9184 10.0341 11.9188 10.0135 11.9251 9.99439C11.9315 9.9753 11.9436 9.95864 11.9598 9.94668L15.1109 7.45779ZM11.0664 10.2711L12.1553 14.1111C12.1642 14.1316 12.1658 14.1546 12.1598 14.1761C12.1538 14.1976 12.1406 14.2165 12.1224 14.2295C12.1042 14.2425 12.0821 14.2488 12.0598 14.2475C12.0375 14.2462 12.0163 14.2373 11.9998 14.2222L8.68421 12C8.52153 11.8899 8.32956 11.831 8.1331 11.8311V1.97334C8.15402 1.97165 8.17488 1.97741 8.19196 1.98961C8.20904 2.00181 8.22125 2.01967 8.22643 2.04001L9.60866 5.77779C9.67561 5.96201 9.79591 6.12211 9.95423 6.23768C10.1125 6.35325 10.3017 6.41904 10.4975 6.42668L14.4975 6.57779C14.5185 6.57745 14.5389 6.58383 14.556 6.59599C14.573 6.60814 14.5856 6.62544 14.5921 6.64533C14.5986 6.66523 14.5985 6.68667 14.5919 6.70651C14.5852 6.72635 14.5724 6.74354 14.5553 6.75557L11.4175 9.22223C11.2605 9.34158 11.1429 9.50547 11.0803 9.69256C11.0177 9.87964 11.0128 10.0813 11.0664 10.2711Z" fill="#FFB800"/>
</g>
<defs>
<clipPath id="clip0_749_16035">
<rect width="16" height="16" fill="white"/>
</clipPath>
</defs>
</svg>
